<svg xmlns="http://www.w3.org/2000/svg" viewBox="0 0 500 500"><defs><style>.cls-1{fill:#d3e2f5;}.cls-2{fill:#abc4dd;}</style></defs><title>placeholder</title><g id="bg"><rect class="cls-1" width="500" height="500"/></g><g id="Vrstva_4" data-name="Vrstva 4"><path class="cls-2" d="M227.5,214.67h29.41a7,7,0,0,0,7.36-3.4c2.83-4.52,10.75-5.09,20.36-3.39s15.28,3.39,20.37,20.36,11.31,43.56,11.31,43.56,6.22,12.45-5.09,19.23-17,.57-22.06-5.09-9.05-19.23-19.24-14.14-41.29,4-52,1.13-11.31-4.52-19.23,6.79-13,16.4-23.19,13S164.14,281.42,167,271.8s12.45-47.52,12.45-47.52,2.8-16.1,20.36-17.53C227.5,204.49,212.23,214.67,227.5,214.67Z"/></g><g id="Vrstva_5" data-name="Vrstva 5"><rect class="cls-1" x="206" y="221.46" width="10.75" height="34.51" rx="5.37" ry="5.37"/><rect class="cls-1" x="194.12" y="233.33" width="34.51" height="10.75" rx="5.37" ry="5.37"/><circle class="cls-1" cx="267.1" cy="228.81" r="7.35"/><circle class="cls-1" cx="276.15" cy="248.61" r="7.35"/><circle class="cls-1" cx="254.65" cy="248.61" r="7.35"/></g></svg>